<svg width="24" height="24" viewBox="0 0 24 24" fill="none" xmlns="http://www.w3.org/2000/svg">
<path fill-rule="evenodd" clip-rule="evenodd" d="M12 -5.24537e-07C18.6274 -2.34843e-07 24 5.37258 24 12C24 18.6274 18.6274 24 12 24C5.37263 24 -2.72158e-06 18.6274 -2.43189e-06 12C-2.14219e-06 5.37258 5.37264 -8.14228e-07 12 -5.24537e-07ZM22.3256 12C22.3256 6.29734 17.7027 1.67442 12 1.67442C6.29739 1.67442 1.67442 6.29734 1.67442 12C1.67442 17.7026 6.29739 22.3256 12 22.3256C17.7027 22.3256 22.3256 17.7026 22.3256 12Z" fill="#292D32"/>
<path fill-rule="evenodd" clip-rule="evenodd" d="M16.7443 10.2195C17.0859 10.5117 17.0851 10.9847 16.7425 11.276L12.6186 14.782C12.2767 15.0727 11.7233 15.0727 11.3813 14.782L7.2575 11.276C6.91485 10.9847 6.91407 10.5117 7.25574 10.2195C7.59742 9.9274 8.15218 9.92673 8.49483 10.218L12 13.1981L15.5052 10.218C15.8478 9.92673 16.4026 9.92741 16.7443 10.2195Z" fill="#292D32"/>
</svg>
